HIERARCHY
ROOT Hips
{
	OFFSET 0.00 0.00 0.00
	CHANNELS 6 Xposition Yposition Zposition Xrotation Yrotation Zrotation
	JOINT Spine
	{
		OFFSET 0.00000 1.72418 2.58627
		CHANNELS 3 Xrotation Yrotation Zrotation
		JOINT Spine1
		{
			OFFSET 0.00000 0.59880 3.39597
			CHANNELS 3 Xrotation Yrotation Zrotation
			JOINT Spine2
			{
				OFFSET 0.00000 0.30055 3.43524
				CHANNELS 3 Xrotation Yrotation Zrotation
				JOINT Spine3
				{
					OFFSET 0.00000 0.00000 3.44836
					CHANNELS 3 Xrotation Yrotation Zrotation
					JOINT Neck
					{
						OFFSET 0.00000 -1.29313 9.05195
						CHANNELS 3 Xrotation Yrotation Zrotation
						JOINT Head
						{
							OFFSET 0.00000 -0.82335 4.66946
							CHANNELS 3 Xrotation Yrotation Zrotation
							End Site
							{
								OFFSET 0.00000 0.00001 5.58203
							}
						}
					}
					JOINT RightShoulder
					{
						OFFSET -1.18828 -1.98046 6.41673
						CHANNELS 3 Xrotation Yrotation Zrotation
						JOINT RightArm
						{
							OFFSET -5.90180 0.00000 0.00000
							CHANNELS 3 Xrotation Yrotation Zrotation
							JOINT RightForeArm
							{
								OFFSET -11.45951 0.00000 0.00000
								CHANNELS 3 Xrotation Yrotation Zrotation
								JOINT RightHand
								{
									OFFSET -10.63451 0.00000 0.00000
									CHANNELS 3 Xrotation Yrotation Zrotation
									JOINT RightHandEnd
									{
										OFFSET -2.86944 0.00000 0.00000
										CHANNELS 3 Xrotation Yrotation Zrotation
										End Site
										{
											OFFSET -2.86944 0.00000 0.00000
										}
									}
									JOINT RightHandThumb1
									{
										OFFSET -1.14778 -1.91296 -0.76518
										CHANNELS 3 Yrotation Xrotation Zrotation
										End Site
										{
											OFFSET -2.77167 -0.74267 0.00000
										}
									}
								}
							}
						}
					}
					JOINT LeftShoulder
					{
						OFFSET 1.18828 -1.98046 6.41673
						CHANNELS 3 Xrotation Yrotation Zrotation
						JOINT LeftArm
						{
							OFFSET 5.90180 0.00000 0.00000
							CHANNELS 3 Xrotation Yrotation Zrotation
							JOINT LeftForeArm
							{
								OFFSET 11.45951 0.00000 0.00000
								CHANNELS 3 Xrotation Yrotation Zrotation
								JOINT LeftHand
								{
									OFFSET 10.63451 0.00000 0.00000
									CHANNELS 3 Xrotation Yrotation Zrotation
									JOINT LeftHandEnd
									{
										OFFSET 2.86944 0.00000 0.00000
										CHANNELS 3 Xrotation Yrotation Zrotation
										End Site
										{
											OFFSET 2.86944 0.00000 0.00000
										}
									}
									JOINT LeftHandThumb1
									{
										OFFSET 1.14778 -1.91296 -0.76518
										CHANNELS 3 Yrotation Xrotation Zrotation
										End Site
										{
											OFFSET 2.77167 -0.74267 0.00000
										}
									}
								}
							}
						}
					}
				}
			}
		}
	}
	JOINT RightUpLeg
	{
		OFFSET -3.52524 0.00000 -1.02984
		CHANNELS 3 Xrotation Yrotation Zrotation
		JOINT RightLeg
		{
			OFFSET 0.00001 0.00000 -17.80965
			CHANNELS 3 Xrotation Yrotation Zrotation
			JOINT RightFoot
			{
				OFFSET 0.00001 0.00000 -17.00908
				CHANNELS 3 Xrotation Yrotation Zrotation
				JOINT RightToeBase
				{
					OFFSET 0.00000 -5.55853 -2.02314
					CHANNELS 3 Xrotation Yrotation Zrotation
					End Site
					{
						OFFSET 0.00000 -2.85188 -0.00000
					}
				}
			}
		}
	}
	JOINT LeftUpLeg
	{
		OFFSET 3.52524 0.00000 -1.02984
		CHANNELS 3 Xrotation Yrotation Zrotation
		JOINT LeftLeg
		{
			OFFSET 0.00001 0.00000 -17.80965
			CHANNELS 3 Xrotation Yrotation Zrotation
			JOINT LeftFoot
			{
				OFFSET 0.00001 0.00000 -17.00908
				CHANNELS 3 Xrotation Yrotation Zrotation
				JOINT LeftToeBase
				{
					OFFSET 0.00000 -5.55853 -2.02314
					CHANNELS 3 Xrotation Yrotation Zrotation
					End Site
					{
						OFFSET 0.00000 -2.85188 -0.00000
					}
				}
			}
		}
	}
}
MOTION
Frames: 10
Frame Time:	0.0333333
 1.6193 31.7247 36.8743 6.9283 4.7169 -170.0321 2.3433 0.7231 -0.1573 1.1587 -0.9029 0.0892 -0.4288 6.9732 5.9397 0.0506 3.0038 -2.3760 3.4908 12.0891 7.2003 -3.8398 3.5992 3.0984 -20.4758 28.5227 27.3000 -52.2549 9.0180 36.9430 -0.0000 0.0000 39.0992 12.2912 38.2596 -13.6166 -0.0000 -0.0000 -0.0000 0.0000 -0.0000 -0.0000 -8.8399 -11.9062 2.5505 -49.1905 -3.0603 12.7315 -0.0000 -0.0000 -26.5824 -22.3822 -39.4313 1.2585 -0.0000 -0.0000 -0.0000 -0.0000 -0.0000 -0.0000 -8.4552 -2.2375 -24.2119 31.3637 0.0000 0.0000 -19.6881 9.7494 -9.9430 -0.8221 0.0000 -0.0000 -9.5506 -6.6244 -1.7782 69.8263 0.0000 0.0000 9.6226 -0.1504 -3.1632 -12.3144 0.0000 -0.0000
 1.7207 32.8150 36.7437 7.1609 4.4358 -171.3297 2.4562 0.2166 0.0944 1.1926 -0.8842 0.1277 -0.0566 7.1483 6.7849 0.1965 3.1491 -2.3191 3.7917 11.7144 7.1692 -3.6006 3.5846 2.4512 -20.0358 28.5401 27.5480 -52.9128 7.1825 39.0918 -0.0000 0.0000 47.5440 17.6632 37.8673 -12.3625 -0.0000 0.0000 -0.0000 -0.0000 -0.0000 -0.0000 -6.7712 -11.1389 4.6814 -53.7098 -0.8243 17.8670 -0.0000 -0.0000 -26.8038 -26.1417 -40.9638 2.6454 -0.0000 0.0000 0.0000 0.0000 -0.0000 0.0000 -6.9982 -2.9371 -23.7039 32.4689 0.0000 0.0000 -21.7275 9.8121 -9.6259 -0.8288 0.0000 -0.0000 -13.9918 -6.5896 -1.4612 71.2177 0.0000 0.0000 3.4361 -1.1958 0.4199 -14.5308 0.0000 -0.0000
 1.7982 33.8725 36.6332 7.2556 4.0941 -172.4665 2.5645 -0.3068 0.3384 1.2335 -0.8790 0.1592 0.1904 7.3884 7.4149 0.3122 3.2785 -2.3180 4.0846 11.5570 7.0397 -3.3975 3.4279 1.4980 -19.2900 28.5084 27.4573 -52.3862 6.5204 41.1517 -0.0000 0.0001 56.1693 22.6429 37.9150 -9.8826 -0.0000 -0.0000 -0.0000 -0.0000 0.0000 -0.0000 -4.8158 -9.8621 7.1147 -57.5965 1.2906 22.2945 -0.0000 -0.0000 -26.3932 -29.2070 -43.1401 4.5197 -0.0000 0.0000 0.0000 -0.0000 -0.0000 0.0000 -5.3977 -3.6594 -23.2716 32.9146 0.0000 0.0000 -23.6364 9.6188 -9.3206 -1.0893 0.0000 -0.0000 -17.9719 -6.3786 -1.3647 69.8087 0.0000 0.0000 -0.9878 -1.0131 2.5550 -13.5127 0.0000 -0.0000
 1.8485 34.9028 36.5507 7.1839 3.6380 -173.4382 2.6482 -0.9086 0.5617 1.2592 -0.9338 0.1721 0.3453 7.7213 7.9365 0.4092 3.4432 -2.3927 4.1652 11.4775 6.8955 -3.2451 3.2855 0.3246 -18.3774 28.5985 27.1579 -51.3223 6.7856 43.0530 -0.0000 0.0001 64.5608 26.9590 38.0395 -6.5189 -0.0000 -0.0000 -0.0000 -0.0000 -0.0000 0.0000 -3.1107 -8.1120 9.5749 -60.9797 3.2450 26.2616 -0.0000 -0.0000 -26.0170 -31.9196 -45.3571 6.1700 0.0000 -0.0000 -0.0000 -0.0000 -0.0000 -0.0000 -3.7831 -4.4946 -22.7366 32.7956 0.0000 0.0000 -25.1913 9.0923 -9.1947 -1.3645 0.0000 -0.0000 -21.3172 -6.1135 -1.1804 65.6357 0.0000 0.0000 -4.6419 0.4500 4.1757 -12.2031 0.0000 -0.0000
 1.8601 35.9271 36.4893 6.9419 3.1930 -174.3303 2.6452 -1.5232 0.7908 1.2797 -0.9960 0.1765 0.4108 8.1089 8.4291 0.4779 3.6713 -2.5232 4.0498 11.3380 6.7489 -3.0434 3.2117 -1.0058 -17.4519 28.8731 26.8453 -50.0608 7.5915 44.6658 -0.0000 0.0001 72.2613 29.9788 37.7733 -2.8285 0.0000 0.0000 0.0000 0.0000 0.0000 0.0000 -1.4009 -6.0855 11.8959 -64.1516 5.0941 30.0421 -0.0000 -0.0000 -26.0031 -34.2658 -47.3315 6.9472 -0.0000 -0.0000 -0.0000 -0.0000 -0.0000 0.0000 -2.0933 -5.2688 -22.1764 32.2220 0.0000 0.0000 -26.3524 8.7794 -9.0402 -1.2127 0.0000 -0.0000 -23.7476 -5.8776 -0.3893 58.9035 0.0000 0.0000 -7.1001 2.7777 4.8558 -11.3613 0.0000 -0.0000
 1.8388 36.9629 36.4320 6.4996 2.7759 -175.1523 2.5198 -2.1715 1.0677 1.3084 -1.0434 0.1836 0.3164 8.5572 8.9590 0.5085 3.9338 -2.6674 3.9671 11.0942 6.4968 -2.8044 3.1606 -2.4115 -16.6790 29.1476 26.6045 -48.6200 8.6863 46.0360 -0.0000 0.0001 78.7423 31.8316 37.2548 0.1026 -0.0000 0.0000 -0.0000 -0.0000 -0.0000 0.0000 0.1905 -3.9640 13.8726 -66.7400 6.9679 33.4234 -0.0000 -0.0000 -26.0472 -35.4411 -48.9693 7.2378 0.0000 0.0000 -0.0000 0.0000 -0.0000 0.0000 -0.3774 -5.9120 -21.6746 31.3246 0.0000 0.0000 -27.3322 8.5408 -8.7677 -1.1281 0.0000 -0.0000 -25.2952 -5.6781 0.9965 50.4362 0.0000 0.0000 -7.4662 5.0273 3.7878 -10.9745 0.0000 -0.0000
 1.7977 38.0205 36.3691 5.8588 2.3637 -175.8201 2.3009 -2.8503 1.3647 1.3250 -1.0673 0.2179 0.0538 9.0337 9.5367 0.5199 4.1790 -2.7891 3.9873 10.8099 6.1269 -2.7686 3.0598 -3.8082 -16.1779 29.2591 26.4484 -47.1327 9.7415 47.0812 -0.0000 0.0001 83.7616 32.8825 36.8131 2.0645 0.0000 0.0000 -0.0000 0.0000 0.0000 0.0000 1.1635 -1.9590 15.2881 -68.3025 8.7213 36.0937 -0.0000 -0.0000 -25.8368 -35.2746 -50.0929 7.8676 0.0000 -0.0000 -0.0000 -0.0000 -0.0000 -0.0000 1.2598 -6.4303 -21.3183 30.2709 0.0000 0.0000 -28.2511 7.8967 -8.3394 -1.6032 0.0000 -0.0000 -26.2438 -5.3649 2.5555 41.1027 0.0000 0.0000 -6.1385 6.3096 1.7010 -11.4882 0.0000 -0.0000
 1.7359 39.1171 36.2799 5.1260 1.9173 -176.3939 2.0065 -3.5464 1.6629 1.3223 -1.1107 0.2421 -0.2699 9.4830 10.1332 0.5283 4.3722 -2.8815 3.8607 10.5633 5.7903 -3.0687 2.9391 -5.1602 -15.9925 29.3289 26.4731 -45.9582 10.2538 47.5121 -0.0000 0.0001 87.3521 32.7899 36.4420 4.3694 0.0000 0.0000 0.0000 0.0000 0.0000 0.0000 1.5427 -0.3684 16.1917 -69.2276 10.0045 38.2297 -0.0000 -0.0000 -25.4089 -34.8943 -50.6527 8.8578 -0.0000 0.0000 0.0000 0.0000 0.0000 -0.0000 2.8860 -6.8985 -21.0051 29.2231 0.0000 0.0000 -29.0855 7.0533 -7.7530 -2.0299 0.0000 -0.0000 -26.6900 -4.9438 4.2283 31.8547 0.0000 0.0000 -4.2312 7.0300 -0.0706 -11.9875 0.0000 -0.0000
 1.6351 40.2612 36.1416 4.4629 1.5355 -177.0847 1.7094 -4.1865 1.9347 1.3044 -1.1583 0.2596 -0.5373 9.8096 10.6647 0.5194 4.4944 -2.9426 3.3943 10.4301 5.6264 -3.5442 2.8516 -6.4718 -16.0166 29.4982 26.7038 -45.4331 10.1216 47.3767 -0.0000 0.0001 89.5444 31.3502 36.2178 7.7193 0.0000 0.0000 -0.0000 -0.0000 0.0000 -0.0000 1.7809 0.8007 16.8348 -70.1464 10.6108 39.9714 -0.0000 -0.0000 -24.9149 -35.2598 -51.2599 9.7316 0.0000 0.0000 -0.0000 0.0000 0.0000 -0.0000 4.6021 -7.2197 -20.3564 28.4386 0.0000 0.0000 -29.8694 6.4259 -7.2660 -2.1846 0.0000 -0.0000 -26.8284 -4.4494 6.0081 25.1298 0.0000 0.0000 -2.4986 7.6410 -1.5810 -11.9452 0.0000 -0.0000
 1.4720 41.4285 35.9806 3.8583 1.7038 -177.9102 1.4624 -4.3707 2.0740 1.2542 -1.3193 0.2704 -0.7070 10.2310 11.1668 0.4784 4.5280 -2.9518 2.7692 10.3879 5.5754 -4.1503 2.6637 -7.6937 -15.9933 29.3805 26.7485 -45.5911 10.0018 47.3997 -0.0000 0.0001 90.3463 29.3935 36.4072 11.0428 0.0000 -0.0000 -0.0000 0.0000 -0.0000 -0.0000 1.7677 1.9206 17.2738 -70.8864 10.5249 40.7448 -0.0000 -0.0000 -24.4628 -35.9105 -52.7517 10.4487 -0.0000 0.0000 -0.0000 0.0000 -0.0000 0.0000 6.1772 -6.7948 -19.3287 28.2620 0.0000 0.0000 -30.6541 5.7929 -7.1302 -3.2316 0.0000 -0.0000 -27.2764 -3.5071 6.6523 23.7258 0.0000 0.0000 -1.6329 7.1925 -3.0915 -12.5046 0.0000 -0.0000
